<?xml version="1.0" encoding="utf-8"?>
<!-- Generator: Adobe Illustrator 25.2.1, SVG Export Plug-In . SVG Version: 6.00 Build 0)  -->
<svg version="1.1" id="Layer_1" xmlns="http://www.w3.org/2000/svg" xmlns:xlink="http://www.w3.org/1999/xlink" x="0px" y="0px"
	 viewBox="0 0 2000 2000" style="enable-background:new 0 0 2000 2000;" xml:space="preserve">
<style type="text/css">
	.st0{fill:#FFFFFF;}
	.st1{fill-rule:evenodd;clip-rule:evenodd;fill:#FFFFFF;}
	.st2{fill:#2F2E2A;}
	.st3{fill-rule:evenodd;clip-rule:evenodd;fill:#2F2E2A;}
	.st4{fill:#F59120;}
	.st5{fill-rule:evenodd;clip-rule:evenodd;fill:#F59120;}
	.st6{fill-rule:evenodd;clip-rule:evenodd;}
	.st7{fill-rule:evenodd;clip-rule:evenodd;fill:#DF6E26;}
	.st8{fill:#1F4395;}
	.st9{opacity:0.02;clip-path:url(#SVGID_2_);}
	.st10{fill:#F79720;}
</style>
<g>
	<g>
		<polygon class="st0" points="425.62,1098.63 342.34,888.78 305.19,888.78 407.54,1141.6 443.7,1141.6 546.05,888.78 508.9,888.78 
					"/>
		<rect x="562.71" y="881.32" class="st0" width="36.28" height="42.62"/>
		<rect x="563.82" y="949.16" class="st0" width="34.05" height="192.45"/>
		<rect x="640.23" y="874.62" class="st0" width="34.04" height="266.98"/>
		<path class="st0" d="M860.72,946.11v24.31c-6.28-7.26-13.83-13.29-22.54-17.99c-11.46-6.18-25.29-9.31-41.14-9.31
			c-18.63,0-35.18,4.49-49.14,13.33c-13.93,8.83-24.9,20.88-32.57,35.85c-7.65,14.9-11.52,31.73-11.52,50.01
			c0,18.05,3.87,34.81,11.51,49.83c7.67,15.09,18.63,27.22,32.58,36.05c13.96,8.84,30.51,13.32,49.14,13.32
			c15.85,0,29.69-3.13,41.14-9.31c8.71-4.68,16.25-10.63,22.54-17.75v27.13h34.03V946.11H860.72z M800.77,1110.11
			c-13.02,0-24.37-3.09-33.76-9.2c-9.42-6.12-16.69-14.42-21.65-24.66c-4.99-10.35-7.52-21.75-7.52-33.91
			c0-12.4,2.53-23.85,7.52-34.06c4.94-10.14,12.23-18.38,21.65-24.51c9.4-6.1,20.76-9.19,33.76-9.19c13.23,0,24.49,3.07,33.5,9.16
			c9.07,6.13,16.04,14.36,20.76,24.48c4.76,10.24,7.17,21.72,7.17,34.12c0,12.17-2.41,23.59-7.19,33.96
			c-4.7,10.24-11.69,18.54-20.74,24.65C825.28,1107.02,814,1110.11,800.77,1110.11z"/>
	</g>
	<g>
		<path class="st0" d="M1683.28,994.76c-7.67-14.97-18.76-27.04-32.96-35.87c-14.22-8.83-31.38-13.32-50.99-13.32
			c-19.37,0-36.46,4.47-50.78,13.32c-14.34,8.83-25.49,20.88-33.17,35.87c-7.64,14.9-11.52,31.73-11.52,50.01
			c0,18.05,3.87,34.81,11.51,49.83c7.68,15.09,18.85,27.24,33.19,36.06c14.33,8.83,31.41,13.3,50.78,13.3
			c19.63,0,36.77-4.47,50.99-13.32c14.21-8.83,25.31-20.95,32.98-36.05c7.64-15.02,11.51-31.79,11.51-49.83
			C1694.81,1026.48,1690.94,1009.66,1683.28,994.76z M1653.59,1078.73c-4.72,10.24-11.69,18.54-20.74,24.65
			c-9.01,6.09-20.28,9.17-33.52,9.17c-12.99,0-24.21-3.09-33.34-9.17c-9.17-6.12-16.21-14.4-20.92-24.65
			c-4.76-10.35-7.17-21.77-7.17-33.96c0-12.41,2.41-23.89,7.17-34.12c4.7-10.11,11.75-18.35,20.92-24.47
			c9.13-6.09,20.35-9.17,33.34-9.17c13.23,0,24.51,3.07,33.52,9.16c9.05,6.13,16.03,14.36,20.74,24.48
			c4.76,10.23,7.17,21.71,7.17,34.12C1660.76,1056.94,1658.35,1068.36,1653.59,1078.73z"/>
		<path class="st0" d="M1440.5,958.87c-14.03-8.81-30.55-13.27-49.13-13.27c-15.85,0-29.68,3.13-41.13,9.31
			c-8.71,4.68-16.28,10.7-22.57,17.96v-98.85h-34.03v112.8c-0.02,0.03-0.05,0.04-0.06,0.08v5.53v26v0.24v3.04h0.03l0.03,4.17v0.07
			V1141h34.03v-24.09c6.31,7.14,13.86,13.09,22.57,17.76c11.45,6.18,25.28,9.31,41.13,9.31c18.6,0,35.13-4.49,49.14-13.35
			c13.96-8.83,24.93-20.97,32.58-36.06c7.65-15.05,11.52-31.82,11.52-49.83c0-18.17-3.87-34.99-11.54-49.98
			C1465.44,979.84,1454.48,967.78,1440.5,958.87z M1443.07,1078.7c-4.96,10.24-12.19,18.56-21.48,24.68
			c-9.35,6.09-20.77,9.17-33.94,9.17c-12.93,0-24.15-3.07-33.35-9.16c-9.13-6.07-16.15-14.36-20.89-24.65
			c-4.76-10.24-7.17-21.68-7.17-34c0-12.52,2.41-23.97,7.17-34.08c4.72-10.14,11.75-18.38,20.89-24.49
			c9.17-6.06,20.4-9.13,33.35-9.13c13.2,0,24.62,3.07,33.93,9.13c9.34,6.18,16.57,14.45,21.5,24.55c4.99,10.2,7.52,21.65,7.52,34.02
			C1450.58,1056.91,1448.05,1068.35,1443.07,1078.7z"/>
	</g>
	<g>
		<path class="st5" d="M1296.64,1018.66h0.08v-0.15c0,0.03-0.03,0.03-0.08,0.06V1018.66z"/>
		<path class="st5" d="M1297.89,1021.65h0.03c0.15-0.17,0.32-0.33,0.47-0.5L1297.89,1021.65z"/>
		<g>
			<path class="st5" d="M1293.85,1025.69c-0.06,0.08-0.14,0.15-0.2,0.2V1018v0v0l-0.06,0.42v-4.32v-21.68
				c0.02-0.03,0.05-0.08,0.06-0.11v-5.5c-0.02,0.03-0.05,0.04-0.06,0.08v0.01c-0.96,1.31-1.81,2.68-2.65,4.01
				c-1.16,1.85-2.24,3.6-3.53,5.12c-6.85,8.35-14.81,16.77-26.53,22.42v-16.69c0.02-17.25,0.03-34.05-0.03-50.81
				c-0.17-45.16-32.1-83.31-77.69-92.78c-6.85-1.43-13.86-2.15-20.82-2.15c-38.43,0-72.78,21.27-89.63,55.56
				c-0.62,1.27-1.37,2.55-2.12,3.8c-12.91-4.37-26.05-6.57-39.11-6.57c-30.52,0-59.93,12.44-80.67,34.17
				c-19.86,20.79-30.08,47.68-28.8,75.74c1.14,24.87,0.84,50.24,0.54,74.8c-0.14,11.21-0.27,22.79-0.27,34.23l0.08,14.04l26.77-0.08
				l-1.43-122.79c0.17-3.25,4.87-79.96,79.16-79.96c11.46,0,24.15,1.87,37.75,5.53c0,0.09-0.02,0.18-0.02,0.27
				c-0.81,13.48-0.84,27.34-0.06,41.16c1.27,22.99,21.72,42.84,46.56,45.21c1.79,0.17,3.6,0.26,5.36,0.26
				c12.11,0,23.67-4.07,35.27-12.4c28.08,21.17,54.67,31.51,83.26,32.36c6.3,56.88-20.56,63.18-21.69,63.42l-1.46,0.27l0,0l0,0
				h-1.23c0,0,0,0,0,0v-0.39c-0.06-1.6-0.15-3.18-0.24-4.79c-0.47-6.49-1.39-12.35-2.77-17.79c-0.12-0.53-0.26-1.02-0.47-1.76
				c-0.9-3.25-2.03-6.52-3.39-9.73c-0.57-1.39-1.22-2.73-1.82-3.93c-0.36-0.78-0.75-1.57-1.13-2.14c-1.37-2.56-2.92-5.05-4.78-7.62
				c-2.21-3.04-4.73-5.97-7.46-8.68c-0.57-0.57-1.14-1.13-1.73-1.69c-1.66-1.54-3.51-3.1-5.66-4.78c-0.83-0.65-1.66-1.25-2.53-1.87
				c-0.83-0.57-1.69-1.15-2.61-1.72l-0.36-0.23c-0.32-0.2-0.63-0.38-1.01-0.59l-0.14-0.08c-5.63-3.31-11.69-5.68-18-7.05l-0.39-0.08
				c-3.83-0.78-7.73-1.18-11.63-1.18c-13.18,0-25.9,4.44-36.74,12.87c-5.59,4.34-10.39,9.22-14.35,14.56
				c-3.92-5.24-8.66-10.02-14.16-14.23c-10.86-8.36-23.53-12.77-36.65-12.77c-13.19,0-25.89,4.45-36.73,12.87
				c-30.68,23.78-31.21,58.88-28.25,86.81l0.29,2.72h28.61l-0.02-9.93c-0.02-5.12-0.04-9.99,0.05-14.85
				c0.42-25.51,15.53-44.03,36.11-44.03c19.19,0.11,33.58,15.9,35.81,39.05l0.02,0.33c0.05,0.49,0.08,0.96,0.11,1.53
				c0.09,1.07,0.12,2.17,0.14,3.28c0.06,3.54,0.09,7.12,0.09,10.71l0.07,4.31c0.08,1.11,0.08,2.31,0.08,3.53
				c0,1.06,0,2.12,0.04,3.17l0.12,2.92h28.36l0.29-2.72c0.13-1.19,0.68-22.26,0.68-22.44l0.07-2.18l0.01-0.78
				c0.03-0.51,0.06-0.98,0.12-1.54c0.84-9.82,3.96-18.67,9.01-25.58c5.82-7.91,13.99-12.79,23.12-13.78
				c1.08-0.14,2.3-0.21,3.72-0.21c2.47,0.03,4.7,0.26,6.82,0.72c0.62,0.14,1.22,0.29,1.93,0.47c14.12,3.92,24.09,16.99,26.68,35.01
				c0.35,2.41,0.56,4.65,0.63,6.73l0.05,1.3c0.03,0.9,0.03,1.85,0.03,2.82c0.09,4.53,0.06,9.08,0.03,13.5
				c-0.03,1.33-0.08,3.52-0.08,5.65v3.04h19.72l8.39-0.27l0.8-0.06l0-0.01c0.06,0,5.27-0.27,9.49-1.41c0.02,0,0.04-0.01,0.06-0.01
				c3.33-0.72,8.77-3.62,8.77-3.62l-0.05-0.01c15.07-6.88,26.33-21.12,30.66-39.22c2.61-10.8,2.43-26.41,2.29-38.96
				c-0.02-1.94-0.05-3.8-0.05-5.53c-0.03-5.09,1.27-6.96,6.28-9.13c9.25-4.01,17.6-9.42,25.29-16.37l0,0l1.4-1.22l1.45-1.45
				C1294.7,1024.92,1294.27,1025.31,1293.85,1025.69z M1234.53,1024.16c-0.53,0.63-1.48,1.48-3.86,1.48c-1.17,0-2.55-0.21-4.07-0.63
				c-2.83-0.77-5.57-1.39-8.38-2.02c-13.15-3-26.74-6.09-53.95-25.52l-0.01-0.01l-0.63-0.83h-0.56l-0.04-0.03l-0.16-0.12l0.5-0.26
				l-3.99-2.68l-0.75-0.66l0,0l0.05-0.06c-0.2-0.18-0.41-0.38-0.63-0.56l0,0c-0.33-0.28-0.7-0.56-1.1-0.84l-0.01-0.01
				c-0.02-0.01-0.02-0.03-0.03-0.03l-0.71-0.68h-0.42c-1.67-0.93-3.48-1.4-5.36-1.4c-5,0-10.08,3.34-15.06,9.94
				c-3,3.98-9.04,6.45-15.74,6.45c-11.16,0-25.84-7.05-30.63-26.86c-0.47-10.48-0.77-24.1,1.01-37.22
				c2.86-8.98,18.6-50.84,65.21-59.67c3.89-0.74,7.76-1.1,11.52-1.1c39.14,0,65.35,41.41,69.1,70.89c0,0,0,0,0,0.01l-0.01,0.02
				l0.1,0.82v0.03l-0.39,62.08l0.06,0.33C1235.94,1016.62,1236.49,1021.74,1234.53,1024.16z"/>
			<path class="st5" d="M1207.91,955.13c-5.59,0-10.15,4.93-10.15,10.98c0,6.06,4.55,10.98,10.15,10.98
				c5.59,0,10.14-4.93,10.14-10.98C1218.06,960.05,1213.51,955.13,1207.91,955.13z"/>
		</g>
	</g>
</g>
</svg>
